<svg width="17" height="17" viewBox="0 0 17 17" fill="none" xmlns="http://www.w3.org/2000/svg">
<path d="M10.6256 10.4505H13.883C14.2428 10.4505 14.5345 10.1588 14.5345 9.799V3.28428C14.5345 2.92449 14.2428 2.63281 13.883 2.63281L7.36827 2.63281C7.00847 2.63281 6.7168 2.92449 6.7168 3.28428L6.7168 6.54164" stroke="#0E215C" stroke-width="1.30294" stroke-linecap="round" stroke-linejoin="round"/>
<path d="M3.46007 14.3587L9.97479 14.3587C10.3346 14.3587 10.6263 14.067 10.6263 13.7072L10.6263 7.19249C10.6263 6.83269 10.3346 6.54102 9.97479 6.54102L3.46007 6.54102C3.10027 6.54102 2.80859 6.83269 2.80859 7.19249L2.80859 13.7072C2.80859 14.067 3.10027 14.3587 3.46007 14.3587Z" stroke="#0E215C" stroke-width="1.30294" stroke-linecap="round" stroke-linejoin="round"/>
</svg>
